<svg width="48" height="34" viewBox="0 0 48 34" fill="none" xmlns="http://www.w3.org/2000/svg">
<path d="M1 1.88889C1.00001 1.65314 1.09322 1.42706 1.25911 1.26036C1.42501 1.09367 1.65 1.00001 1.88462 1H40.8077C41.0423 1 41.2673 1.09365 41.4332 1.26035C41.5991 1.42705 41.6923 1.65314 41.6923 1.88889C41.6923 2.12464 41.5991 2.35073 41.4332 2.51743C41.2673 2.68413 41.0423 2.77778 40.8077 2.77778H1.88462C1.65 2.77776 1.42501 2.68411 1.25911 2.51741C1.09322 2.35072 1.00001 2.12463 1 1.88889ZM23.1154 15.2222H1.88462C1.65 15.2222 1.425 15.3159 1.2591 15.4826C1.0932 15.6493 1 15.8753 1 16.1111C1 16.3468 1.0932 16.5729 1.2591 16.7396C1.425 16.9063 1.65 17 1.88462 17H23.1154C23.35 17 23.575 16.9063 23.7409 16.7396C23.9068 16.5729 24 16.3468 24 16.1111C24 15.8753 23.9068 15.6493 23.7409 15.4826C23.575 15.3159 23.35 15.2222 23.1154 15.2222ZM23.1154 29.4444H1.88462C1.65 29.4444 1.425 29.5381 1.2591 29.7048C1.0932 29.8715 1 30.0976 1 30.3333C1 30.569 1.0932 30.7951 1.2591 30.9618C1.425 31.1285 1.65 31.2222 1.88462 31.2222H23.1154C23.35 31.2222 23.575 31.1285 23.7409 30.9618C23.9068 30.7951 24 30.569 24 30.3333C24 30.0976 23.9068 29.8715 23.7409 29.7048C23.575 29.5381 23.35 29.4444 23.1154 29.4444ZM47 23.2222C47 23.373 46.9618 23.5212 46.8891 23.6531C46.8164 23.785 46.7115 23.8961 46.5843 23.976L32.4304 32.8649C32.2965 32.949 32.1426 32.9955 31.9848 32.9997C31.8269 33.0039 31.6708 32.9655 31.5327 32.8886C31.3946 32.8116 31.2795 32.699 31.1993 32.5623C31.1192 32.4255 31.0769 32.2698 31.0769 32.1111V14.3333C31.0769 14.1746 31.1192 14.0189 31.1993 13.8821C31.2795 13.7454 31.3946 13.6327 31.5327 13.5558C31.6708 13.4789 31.8269 13.4405 31.9848 13.4447C32.1426 13.4489 32.2965 13.4954 32.4304 13.5795L46.5843 22.4684C46.7115 22.5483 46.8164 22.6594 46.8891 22.7913C46.9618 22.9232 47 23.0714 47 23.2222ZM44.4464 23.2222L32.8462 15.937V30.5073L44.4464 23.2222Z" fill="#F2CC8F" stroke="#F2CC8F"/>
</svg>
