<svg width="87" height="59" viewBox="0 0 87 59" fill="none" xmlns="http://www.w3.org/2000/svg">
<path d="M2 22.4886V36.5182C2 43.5329 5.53846 47.0403 12.6154 47.0403H17.6754C18.9846 47.0403 20.2938 47.4261 21.4262 48.0925L31.7585 54.511C40.6754 60.0527 48 56.0192 48 45.6023V13.4045C48 2.95255 40.6754 -1.04585 31.7585 4.4958L21.4262 10.9143C20.2938 11.5807 18.9846 11.9665 17.6754 11.9665H12.6154C5.53846 11.9665 2 15.4739 2 22.4886Z" stroke="#3D405B" stroke-width="3"/>
<path d="M61 24C63.2639 26.1573 66.4333 31.5775 61 36" stroke="#3D405B"/>
<path d="M68 18C72.5277 22.3146 78.8666 33.1551 68 42" stroke="#3D405B"/>
</svg>
