<svg width="88" height="59" viewBox="0 0 88 59" fill="none" xmlns="http://www.w3.org/2000/svg">
<path d="M2 22.4886V36.5182C2 43.5329 5.81471 47.0403 13.4441 47.0403H18.8992C20.3106 47.0403 21.722 47.4261 22.9427 48.0925L34.0817 54.511C43.6948 60.0527 51.5912 56.0192 51.5912 45.6023V13.4045C51.5912 2.95255 43.6948 -1.04585 34.0817 4.4958L22.9427 10.9143C21.722 11.5807 20.3106 11.9665 18.8992 11.9665H13.4441C5.81471 11.9665 2 15.4739 2 22.4886Z" stroke="#3D405B" stroke-width="3"/>
<line y1="-0.5" x2="25.9942" y2="-0.5" transform="matrix(0.733154 -0.680062 0.733154 0.680062 67.7623 39.1814)" stroke="#3D405B"/>
<line y1="-0.5" x2="25.9942" y2="-0.5" transform="matrix(0.733154 0.680062 -0.733154 0.680062 67.7623 21.5037)" stroke="#3D405B"/>
</svg>
